<svg width="29" height="29" viewBox="0 0 29 29" fill="none" xmlns="http://www.w3.org/2000/svg">
<path d="M16.6938 21H16.6095C8.35081 20.5346 7.171 13.5115 7.00245 11.3538C6.96031 10.6769 7.46595 10.0423 8.18226 10H10.4998C10.8368 10 11.1739 10.2115 11.3003 10.55L11.8903 12.1154C12.0167 12.4115 11.9324 12.7923 11.7217 13.0462L10.8368 13.9346C11.1318 15.5846 12.3959 16.8538 14.0392 17.15L14.9662 16.2615C15.219 16.0077 15.5561 15.9654 15.8932 16.0923L17.4944 16.7269C17.7893 16.8538 18 17.15 18 17.5308V19.7308C17.9579 20.45 17.4101 21 16.6938 21ZM8.26654 10.8462C8.01372 10.8462 7.84517 11.0154 7.84517 11.2692V11.3115C8.05586 13.8077 9.27781 19.7308 16.6516 20.1538C16.9045 20.1538 17.073 19.9846 17.1151 19.7731V17.4885L15.514 16.8538L14.292 18.0808L14.1235 18.0385C10.4576 17.5731 9.95198 13.8923 9.95198 13.85L9.90985 13.6385L11.0897 12.4115L10.4998 10.8462H8.26654Z" fill="white"/>
<path d="M8.26654 10.8462C8.01372 10.8462 7.84517 11.0154 7.84517 11.2692V11.3115C8.05586 13.8077 9.27781 19.7308 16.6516 20.1538C16.9045 20.1538 17.073 19.9846 17.1151 19.7731V17.4885L15.514 16.8538L14.292 18.0808L14.1235 18.0385C10.4576 17.5731 9.95198 13.8923 9.95198 13.85L9.90985 13.6385L11.0897 12.4115L10.4998 10.8462H8.26654Z" fill="white"/>
<path d="M6.84994 20.0213C8.41279 22.038 11.2544 23.491 10.2192 23.0098C9.05597 22.5786 7.54242 21.763 6.56082 20.5077C5.13906 18.6895 4.8044 16.9996 4.55989 15.7072C4.2093 13.854 5.2871 18.0047 6.84994 20.0213Z" fill="white"/>
<path d="M5.20244 21.5236C7.58849 24.6025 12.0151 26.7124 10.4007 26.0197C8.58201 25.4137 6.22583 24.2242 4.72673 22.3083C2.55543 19.5332 2.09471 16.8915 1.76039 14.8705C1.28102 11.9726 2.8164 18.4447 5.20244 21.5236Z" fill="white"/>
<path d="M17.3086 11.0205C15.9512 9.32407 13.208 8.18341 14.2133 8.55666C15.3566 8.87997 16.8125 9.52416 17.6665 10.5797C18.9034 12.1086 19.0377 13.5766 19.1286 14.6999C19.259 16.3105 18.6659 12.717 17.3086 11.0205Z" fill="white"/>
<path d="M19.1854 9.53048C16.8496 6.61126 12.2264 4.5559 13.9188 5.2339C15.8392 5.83496 18.2946 6.99102 19.7636 8.80787C21.8912 11.4394 22.1775 13.9129 22.3769 15.8049C22.6627 18.5177 21.5211 12.4497 19.1854 9.53048Z" fill="white"/>
<path d="M21.4719 7.82372C18.5226 4.13769 12.6285 1.59629 14.7872 2.4316C17.2393 3.16452 20.3688 4.59657 22.2239 6.89038C24.9109 10.2128 25.2402 13.3666 25.467 15.7794C25.7922 19.2389 24.4212 11.5098 21.4719 7.82372Z" fill="white"/>
</svg>
