<svg width="91" height="91" viewBox="0 0 91 91" fill="none" xmlns="http://www.w3.org/2000/svg">
<circle cx="45.5" cy="45.5" r="45.5" fill="white"/>
<path d="M66.8377 36.2875C66.7504 37.322 66.6628 38.3564 66.5758 39.3908C66.5662 39.5052 66.5588 39.6198 66.5528 39.7344C66.5436 39.9119 66.7487 40.1977 66.9243 40.238C67.1793 40.2965 67.4352 40.3518 67.6927 40.3961C68.8015 40.5874 69.7728 41.0743 70.6577 41.8609C73.8354 44.6853 77.0371 47.4767 80.2374 50.27C80.9988 50.9346 81.5565 51.729 81.8366 52.7726C82.1196 53.8258 82.0271 54.8122 81.6207 55.8074C81.1583 56.9399 80.3726 57.6376 79.3482 58.0441C78.0141 58.5735 76.7701 58.3044 75.6295 57.4301C75.0291 56.9699 74.4649 56.4514 73.8926 55.9475C73.0747 55.2272 72.2722 54.4854 71.4484 53.7736C70.8772 53.2802 70.5574 52.6723 70.5258 51.8573C70.4946 51.0476 70.3823 50.2465 70.1252 49.4787C69.3205 47.0756 67.846 45.3416 65.7482 44.3004C61.4831 42.1837 56.5592 44.5627 54.9386 49.3816C54.6453 50.2535 54.415 51.1421 54.4623 52.0867C54.5022 52.8885 54.247 53.5619 53.7419 54.1197C52.4109 55.5896 51.1523 57.142 49.6858 58.4577C48.8583 59.2 47.9227 59.6851 46.8878 59.9458C45.7659 60.2283 44.6425 60.4945 43.491 60.599C42.7097 60.6699 41.9316 60.7886 41.1536 60.8974C40.1132 61.0427 39.0676 61.1078 38.0223 61.0476C35.9321 60.9272 33.8541 60.6859 31.8062 60.1793C30.7352 59.9143 29.6571 59.6916 28.6077 59.3204C27.5997 58.9638 26.6636 58.4533 25.8169 57.769C24.2684 56.5172 23.3365 54.8243 23.0488 52.72C22.9946 52.3233 22.991 51.9117 23.0117 51.5099C23.0998 49.8076 23.8424 48.5536 25.2061 47.773C25.9017 47.3746 26.6278 47.0411 27.3385 46.6746C28.3326 46.162 29.3204 45.634 30.3209 45.1373C30.6993 44.9495 31.1035 44.8239 31.4997 44.6827C31.6658 44.6234 31.9662 44.8071 32.0057 44.9969C32.2748 46.2876 32.6757 47.551 32.6717 48.8988C32.6708 49.1658 32.4052 49.4691 32.1614 49.4447C31.8513 49.4136 31.5397 49.3719 31.2364 49.2978C30.6754 49.1608 30.1246 48.9672 29.5605 48.8517C28.7666 48.6892 28.0072 48.8085 27.2904 49.2661C26.3382 49.874 25.628 51.1924 25.6521 52.4238C25.6755 53.6099 26.1973 54.5237 27.0315 55.203C27.4912 55.5771 28.0317 55.8115 28.6028 55.9603C30.0762 56.3438 31.5363 56.7912 33.0138 57.153C33.932 57.3779 34.8456 57.6089 35.7532 57.884C36.2477 58.0338 36.7886 58.0374 37.3082 58.0356C38.4553 58.0315 39.2487 57.3934 39.8533 56.3283C40.368 55.4213 40.4833 54.4606 40.2288 53.5007C39.8589 52.1049 39.7851 50.6534 39.453 49.2555C39.4144 49.0933 39.4311 48.9135 39.4324 48.7418C39.4342 48.4947 39.674 48.1448 39.8862 48.0951C40.089 48.0475 40.2979 47.9873 40.5017 47.9966C43.0271 48.1101 45.5006 47.5682 47.9948 47.2869C48.4822 47.232 48.8949 47.0012 49.2344 46.612C49.5974 46.1961 49.9565 45.7761 50.3207 45.3613C52.8694 42.4572 55.4237 39.5587 57.9641 36.6458C58.4048 36.1404 58.8688 35.6766 59.4367 35.3708C59.7104 35.2233 60.0277 35.1647 60.3312 35.0988C60.5691 35.0471 60.8615 35.337 60.8659 35.6092C60.8716 35.9552 60.8486 36.3017 60.8585 36.6472C60.903 38.1961 62.0253 39.7592 63.5903 39.9359C63.948 39.9764 64.3136 40.0914 64.6637 39.8909C64.7056 39.8671 64.7656 39.8067 64.7608 39.7731C64.7459 39.6677 64.7227 39.4922 64.6699 39.4761C64.2723 39.355 63.8684 39.2556 63.463 39.1685C62.6142 38.9861 62.057 38.3723 61.7286 37.5606C61.4465 36.863 61.4478 36.0842 61.7732 35.3737C62.2011 34.4396 62.8504 33.8202 63.8445 33.7574C64.0011 33.7475 64.1577 33.7222 64.3139 33.7255C64.8463 33.7367 65.355 33.6454 65.8223 33.3443C65.8661 33.3161 65.922 33.3108 65.972 33.2942C66.3565 33.1655 66.7664 33.433 66.7755 33.8552C66.7929 34.6639 66.7806 35.4731 66.7806 36.2821C66.7997 36.2841 66.8187 36.2859 66.8377 36.2875Z" fill="black"/>
<path d="M55.0013 52.9317C54.9519 48.9019 58.0136 44.9929 62.4654 45C66.6115 45.0066 70.0158 48.3826 69.9999 53.058C69.9855 57.3138 66.8449 61.0522 62.3509 60.9994C58.3919 60.9531 54.9216 57.4814 55.0013 52.9317Z" fill="black"/>
<path d="M22.9947 46.594C23.132 50.5421 20.0994 54.4528 15.9541 54.3952C12.1306 54.3421 9.02653 51.0546 9.00015 46.6648C8.97603 42.6547 11.8329 38.9351 16.0492 38.8232C20.8296 39.0733 23.1262 43.3409 22.9947 46.594ZM15.5601 49.2823C15.7131 49.2823 15.833 49.323 15.9075 49.2757C16.395 48.9661 16.8559 48.6011 17.3569 48.323C18.2711 47.8155 19.2074 47.3574 20.1332 46.8755C20.364 46.7553 20.5925 46.6287 20.8165 46.4939C20.9957 46.3862 21.0906 46.057 20.9963 45.9123C20.8804 45.7339 20.6563 45.6454 20.4569 45.6977C20.3575 45.7236 20.2531 45.7341 20.1583 45.7731C18.8602 46.3072 17.5991 46.9314 16.4131 47.7251C16.1098 47.928 15.8375 48.1955 15.5765 48.4634C15.4747 48.568 15.3957 48.7556 15.3938 48.9067C15.3922 49.0422 15.5107 49.1795 15.5601 49.2823Z" fill="black"/>
<path d="M15.5601 49.2823C15.7131 49.2823 15.833 49.323 15.9075 49.2757C16.395 48.9661 16.8559 48.6011 17.3569 48.323C18.2711 47.8155 19.2074 47.3574 20.1332 46.8755C20.364 46.7553 20.5925 46.6287 20.8165 46.4939C20.9957 46.3862 21.0906 46.057 20.9963 45.9123C20.8804 45.7339 20.6563 45.6454 20.4569 45.6977C20.3575 45.7236 20.2531 45.7341 20.1583 45.7731C18.8602 46.3072 17.5991 46.9314 16.4131 47.7251C16.1098 47.928 15.8375 48.1955 15.5765 48.4634C15.4747 48.568 15.3957 48.7556 15.3938 48.9067C15.3922 49.0422 15.5107 49.1795 15.5601 49.2823Z" fill="black"/>
<path d="M37.0944 57.7328C36.7204 57.6575 36.2244 57.6103 35.7625 57.452C35.1343 57.2369 34.5038 57.0653 33.8488 56.9819C33.6325 56.9544 33.4155 56.907 33.2068 56.8406C31.6888 56.3576 30.1422 55.999 28.5983 55.6253C27.4638 55.3507 26.62 54.6689 26.1639 53.5095C25.943 52.9478 25.9402 52.3798 26.187 51.8271C26.3034 51.5667 26.4386 51.3107 26.5971 51.077C27.104 50.3295 27.7626 49.8808 28.6724 49.9111C29.2224 49.9293 29.7557 49.9983 30.2899 50.1544C31.2368 50.431 32.1961 50.6605 33.1521 50.9009C33.3814 50.9586 33.7088 50.6272 33.6937 50.3769C33.6903 50.3193 33.7033 50.2591 33.6927 50.2038C33.4528 48.9593 33.2017 47.7173 32.972 46.4707C32.8361 45.7334 32.7218 44.991 32.6227 44.2471C32.5931 44.0251 32.6226 43.784 32.6715 43.5633C32.7364 43.2704 32.9186 43.0481 33.1846 42.9296C33.3338 42.8632 33.4966 42.8028 33.6559 42.7947C34.5921 42.7462 35.4978 42.5465 36.3828 42.2268C36.4846 42.1901 36.598 42.1892 36.7062 42.1718C37.1103 42.1071 37.5143 42.3158 37.6362 42.7029C37.8085 43.2502 37.9836 43.8019 38.0887 44.3659C38.3843 45.9533 38.6263 47.5519 38.9241 49.139C39.2005 50.6113 39.5215 52.0743 39.8234 53.5412C39.8467 53.6542 39.8737 53.7664 39.8999 53.8785C40.2078 55.1937 39.7865 56.2693 38.8953 57.1664C38.7072 57.3558 38.4384 57.4873 38.1847 57.5645C37.8732 57.659 37.5388 57.6689 37.0944 57.7328Z" fill="black"/>
<path d="M82 42.9474C81.9348 43.2511 81.9008 43.539 81.8084 43.803C81.7155 44.0683 81.594 44.3348 81.4339 44.5576C80.7193 45.5517 79.997 46.5401 79.2546 47.5099C78.9387 47.9224 78.5208 47.9557 78.1247 47.6192C77.2093 46.8416 76.3031 46.0507 75.4068 45.2474C75.1455 45.0133 75.072 44.6739 75.1591 44.3102C75.1989 44.1443 75.2573 43.9834 75.2926 43.8168C75.3452 43.5683 75.2366 43.3581 75.0902 43.1967C74.9454 43.037 74.7672 42.9001 74.5826 42.7975C73.453 42.1698 72.3154 41.551 71.1049 41.1315C70.05 40.7662 68.9703 40.485 67.9018 40.1656C67.7498 40.1202 67.5917 40.087 67.4501 40.0162C67.2515 39.9169 67.1119 39.7424 67.0644 39.5049C67.0311 39.3382 66.9942 39.1655 67.0008 38.9975C67.0503 37.7376 67.1018 36.4777 67.1712 35.2191C67.1953 34.7807 67.5243 34.4913 67.9184 34.5011C67.9712 34.5024 68.0242 34.4988 68.077 34.5004C68.1298 34.502 68.1838 34.4999 68.2348 34.5119C69.2147 34.7444 70.207 34.9303 71.1703 35.2263C72.1316 35.5219 73.0779 35.8905 74.0062 36.2932C76.424 37.3419 78.6562 38.7526 80.7206 40.4731C81.1917 40.8658 81.5255 41.3886 81.7617 41.9702C81.8869 42.2778 81.925 42.627 82 42.9474Z" fill="black"/>
<path d="M50.6375 27.945C52.0992 27.8522 53.0337 28.401 53.8546 29.2401C54.0377 29.4273 54.1598 29.6958 54.2939 29.9384C54.7325 30.7317 54.9317 31.6372 55.1949 32.5083C55.5741 33.7632 55.8987 35.0393 56.2488 36.3056C56.382 36.7876 56.3081 37.2279 56.0097 37.5951C55.4569 38.2751 54.8961 38.9471 54.324 39.6066C53.2872 40.8016 52.2438 41.9894 51.1917 43.1671C51.0536 43.3215 50.8546 43.4193 50.6689 43.5C50.599 43.5305 50.4709 43.4612 50.399 43.3957C50.3247 43.3278 50.2667 43.2169 50.2356 43.1118C49.8311 41.7454 49.4281 40.3784 49.0342 39.0081C48.5611 37.3623 48.1088 35.709 47.6239 34.0678C47.4274 33.4028 47.3053 32.7389 47.3128 32.0344C47.3305 30.3641 48.4497 28.4236 50.3432 27.9886C50.5424 27.9428 50.7473 27.9295 50.6375 27.945Z" fill="black"/>
<path d="M43.3879 47.3472C43.0544 47.3472 42.721 47.3493 42.3875 47.3466C41.9923 47.3436 41.6154 47.26 41.2703 47.0368C40.6013 46.6043 39.9275 46.1808 39.2618 45.7424C38.8589 45.4771 38.6405 45.0667 38.532 44.5731C38.3122 43.5718 38.0862 42.5723 37.8573 41.5734C37.8118 41.3745 37.5339 41.1751 37.3422 41.1927C36.7898 41.2439 36.242 41.2911 35.7069 41.4951C34.5421 41.9396 33.2962 41.8906 32.0973 42.139C31.9503 42.1695 31.7744 42.0715 31.6194 42.0105C31.3961 41.9225 31.122 41.5243 31.1779 41.2991C31.3896 40.4483 31.2075 39.6275 31.1041 38.7886C31.0083 38.0118 31.0088 37.2185 31.0001 36.4322C30.9939 35.8615 31.22 35.3757 31.5888 34.9726C32.7649 33.6866 34.2767 33.7038 35.4648 34.8591C35.7022 35.09 35.8953 35.4328 35.9938 35.7646C36.2328 36.5702 36.3996 37.4011 36.6052 38.2188C36.6779 38.5079 36.7648 38.7958 36.8783 39.0677C36.9037 39.1285 37.0994 39.1746 37.1632 39.1321C37.298 39.0421 37.4054 38.8963 37.5101 38.7605C37.7134 38.4968 37.9781 38.4171 38.2562 38.5269C38.6205 38.6706 38.9761 38.849 39.3193 39.0457C42.4725 40.8516 45.5243 42.8381 48.3937 45.1461C48.5715 45.2891 48.7372 45.4523 48.8974 45.6188C49.1154 45.845 48.9624 46.4777 48.6605 46.5256C46.9041 46.804 45.1833 47.3605 43.3879 47.3472Z" fill="black"/>
<path d="M73.1956 26.3369C73.8955 26.4264 74.5991 26.6775 75.2584 27.1238C76.4823 27.9526 77.0175 29.284 77.1589 30.8815C77.2275 31.6563 77.0119 32.4054 76.7931 33.1154C76.5181 34.0079 76.1706 34.873 75.8066 35.7205C75.4841 36.471 75.1238 36.4265 74.6081 36.2089C73.9567 35.9341 73.2998 35.6777 72.652 35.3919C71.601 34.9282 70.5032 34.6849 69.4218 34.3609C68.0192 33.9408 67.931 33.7136 68.5012 32.1411C68.9033 31.0322 69.2987 29.9155 69.766 28.8454C70.4707 27.2322 71.6934 26.5515 73.1956 26.3369Z" fill="black"/>
<path d="M30.7041 35.4352C30.3733 36.4958 30.6482 37.7206 30.7731 38.9496C30.8166 39.3776 30.8351 39.809 30.8514 40.2397C30.8586 40.4333 30.5452 40.6905 30.3676 40.6452C30.0968 40.5762 29.8217 40.515 29.5607 40.4127C29.0866 40.2265 28.6238 40.0054 28.152 39.8116C27.4706 39.5314 26.7802 39.2776 26.1032 38.9851C25.1891 38.5903 24.4287 37.9865 24.0348 36.9431C23.9496 36.7173 23.8658 36.473 23.8553 36.2332C23.7796 34.521 24.8572 32.996 26.5607 32.8673C26.7777 32.851 27.0114 32.8997 27.2191 32.9779C28.1719 33.3362 29.1225 33.703 30.0651 34.0929C30.5521 34.2941 30.759 34.7064 30.7041 35.4352Z" fill="black"/>
<path d="M55.8999 61.0509C54.7292 61.1945 53.861 60.5502 53.3309 58.9904C53.2733 58.8211 53.1815 58.6773 53.1148 58.5135C52.9544 58.1192 52.9569 57.5736 53.1549 57.2572C53.5066 56.6954 53.8732 56.1527 54.2454 55.6196C54.3906 55.4117 54.7203 55.5159 54.8207 55.7702C54.8857 55.935 54.9581 56.0965 55.0067 56.2717C55.3901 57.6547 55.9881 58.8161 56.717 59.846C56.81 59.9774 56.8869 60.1337 56.9681 60.2823C57.0575 60.4457 56.9452 60.8642 56.8028 60.9118C56.761 60.9257 56.7222 60.9663 56.6807 60.9711C56.4206 61.0015 56.1602 61.0251 55.8999 61.0509Z" fill="black"/>
<path d="M68.6469 61.0704C68.5032 61.0224 68.3526 60.9732 68.2028 60.9217C68.021 60.8591 67.9335 60.4935 68.0589 60.3239C68.126 60.233 68.1856 60.1329 68.2624 60.0533C69.288 58.9888 70.0727 57.7431 70.5577 56.2681C70.6119 56.103 70.6979 55.95 70.7751 55.7953C70.9005 55.5441 71.2587 55.4283 71.4663 55.5703C71.601 55.6623 71.7437 55.7448 71.8644 55.8563C73.2982 57.1801 73.3563 57.0987 72.1406 58.7365C71.8362 59.1465 71.5393 59.5634 71.227 59.9657C70.7173 60.6222 70.08 61.0022 69.2923 61.0372C69.0809 61.0467 68.87 61.0589 68.6469 61.0704Z" fill="black"/>
<path d="M31.7784 33.0046C31.8992 33.0207 32.2486 33.0494 32.5796 33.1179C32.7993 33.1633 32.9863 33.2677 33.0318 33.4446C33.0699 33.5924 32.9557 33.7545 32.7567 33.8459C32.1907 34.1057 31.591 34.2089 30.9382 34.0148C30.6761 33.9369 30.4211 33.8434 30.1805 33.7386C29.9721 33.648 30.001 33.299 30.2212 33.219C30.4226 33.1457 30.6398 33.0905 30.8565 33.0393C30.9644 33.0139 31.0858 33.0112 31.2021 33.0058C31.3178 33.0005 31.435 33.0046 31.7784 33.0046Z" fill="black"/>
<path d="M62.0698 29.9248C62.3751 29.9481 62.6838 29.9577 62.9883 29.9988C63.3003 30.0408 63.5769 30.182 63.8066 30.4042C63.9174 30.5113 64.0268 30.6272 63.9941 30.8082C63.974 30.9193 63.763 30.9776 63.5993 30.915C63.5513 30.8966 63.5016 30.8806 63.4565 30.8561C62.4627 30.3173 61.4859 30.3752 60.5201 30.9362C60.4334 30.9865 60.3305 31.0416 60.238 31.0368C60.1604 31.0329 60.0782 30.9533 60.0164 30.8889C59.9915 30.863 59.9967 30.777 60.02 30.7379C60.2766 30.3065 60.6713 30.0781 61.1459 30.0014C61.4492 29.9528 61.7592 29.9491 62.0698 29.9248Z" fill="black"/>
<path d="M72.4382 63.295C72.3409 63.2754 72.2425 63.2595 72.1466 63.2355C72.026 63.2054 71.9776 63.1322 72.0096 63.0284C72.0213 62.9903 72.0433 62.9368 72.0758 62.9253C72.2134 62.8767 72.3536 62.8256 72.4983 62.8035C73.4162 62.6624 74.0435 62.1891 74.4463 61.4488C74.5115 61.3289 74.5891 61.2135 74.6732 61.1037C74.6932 61.0776 74.7801 61.0602 74.8062 61.0769C74.8768 61.122 74.9613 61.1792 74.9844 61.247C75.0122 61.3279 74.9991 61.4289 74.9744 61.5144C74.6813 62.5218 73.5804 63.2923 72.4382 63.295Z" fill="black"/>
<path d="M63 31.7834C62.9445 31.8507 62.8914 31.971 62.8332 31.9761C62.548 32.0011 62.314 31.6104 62.0145 31.7447C61.7447 31.8658 61.4842 32.029 61.2134 32.1453C61.159 32.1686 61.0483 32.089 61.0165 32.0126C60.9866 31.9407 60.999 31.7732 61.0402 31.7117C61.335 31.2729 61.7185 31.0677 62.1319 31.0388C62.4719 31.0149 62.7587 31.253 62.9812 31.6217C63.0026 31.6572 62.9943 31.7285 63 31.7834Z" fill="black"/>
<path d="M72.9988 60.2798C73.0098 60.6096 72.9423 60.876 72.8586 61.1164C72.6875 61.6073 72.466 61.9549 72.2054 62.167C72.1624 62.202 72.0923 62.1756 72.0558 62.1145C72.0213 62.0568 71.9925 61.9046 72.0018 61.8152C72.0121 61.715 72.0616 61.6133 72.1054 61.556C72.3934 61.1802 72.6235 60.6833 72.7888 60.0304C72.8046 59.9678 72.8964 59.9343 72.9292 59.9775C72.9666 60.0266 72.9773 60.177 72.9988 60.2798Z" fill="black"/>
</svg>
