<svg width="91" height="91" viewBox="0 0 91 91" fill="none" xmlns="http://www.w3.org/2000/svg">
<circle cx="45.5" cy="45.5" r="45.5" fill="white"/>
<path d="M45.3512 56.8585C42.8964 56.8757 40.7734 56.7213 38.6563 56.506C37.7649 56.4155 36.8842 56.176 36.0052 55.9704C35.6892 55.8965 35.3888 55.7322 35.0874 55.5935C34.7914 55.4574 34.6724 55.1984 34.7408 54.8229C34.8131 54.4254 34.8882 54.0261 34.9969 53.6396C35.5548 51.6593 36.1205 49.6816 36.69 47.7052C37.2473 45.7718 37.8168 43.8428 38.3723 41.9088C38.6315 41.0063 38.8734 40.0976 39.1175 39.19C39.7148 36.9699 39.7287 34.7444 39.1689 32.5123C39.0708 32.1213 39.0021 31.7212 38.9029 31.3305C38.8714 31.2066 38.7896 31.0966 38.7234 30.9858C38.6485 30.8602 38.3677 30.8666 38.287 30.9908C38.2399 31.0635 38.1719 31.1294 38.1496 31.2105C37.9603 31.9009 37.767 32.5905 37.5995 33.2876C37.4321 33.9852 37.3068 34.6953 37.1387 35.3925C36.8705 36.5043 36.2105 37.165 35.1853 37.3771C34.3959 37.5403 33.6142 37.4313 32.9048 37.0678C31.3289 36.2604 29.9508 35.1409 28.8697 33.6185C28.6439 33.3002 28.4693 32.9383 28.2586 32.6061C27.891 32.0263 27.7951 31.3549 27.7482 30.6805C27.7099 30.129 27.8552 29.5979 28.1491 29.1474C28.5394 28.5487 29.0868 28.2694 29.7527 28.4091C30.4492 28.5552 30.9344 28.9998 31.1249 29.781C31.146 29.8675 31.1619 29.9594 31.1601 30.0483C31.147 30.685 31.4384 31.1591 31.8117 31.6011C32.2603 32.1323 32.7578 32.5978 33.3014 33.0033C33.6461 33.2604 34.0507 33.1037 34.1868 32.6597C34.2652 32.4041 34.3261 32.1413 34.3843 31.8788C34.7053 30.428 35.1713 29.0363 35.7136 27.6684C36.087 26.7265 36.681 26.0051 37.3712 25.358C37.5238 25.215 37.7155 25.1179 37.8976 25.0185C38.9655 24.4351 40.0898 24.0348 41.248 23.7306C42.0215 23.5275 42.7815 23.5006 43.5525 23.726C43.9071 23.8297 44.2682 23.926 44.6318 23.9671C45.2871 24.0411 45.9422 24.003 46.5716 23.7608C47.3783 23.4504 48.1815 23.524 48.9878 23.7515C49.8601 23.9976 50.7181 24.2952 51.5542 24.6629C51.8947 24.8127 52.2293 24.9907 52.5433 25.199C53.0728 25.5504 53.5468 25.9796 53.8565 26.5887C54.0962 27.06 54.362 27.5193 54.5591 28.0119C55.0216 29.1678 55.4279 30.3465 55.6741 31.5888C55.7692 32.0691 55.948 32.5298 56.0969 32.9962C56.1416 33.1359 56.4 33.2394 56.5204 33.181C56.632 33.1269 56.7566 33.0875 56.8488 33.0053C57.2935 32.608 57.744 32.2163 58.1639 31.7885C58.5591 31.3856 58.8657 30.9133 58.9222 30.2861C58.9421 30.0652 59.0217 29.8501 59.0796 29.6343C59.2772 28.8971 59.7705 28.5321 60.4178 28.4113C60.9789 28.3067 61.4849 28.5 61.8553 28.9765C62.4698 29.7669 62.5547 30.6859 62.264 31.6477C62.0424 32.3812 61.6871 33.0398 61.2443 33.642C60.1692 35.1043 58.8593 36.2292 57.3073 37.0137C56.457 37.4435 55.5794 37.5226 54.671 37.3075C54.2988 37.2193 53.9834 37.0324 53.7263 36.7207C53.2767 36.1758 52.9239 35.5694 52.8442 34.8245C52.7331 33.7863 52.3747 32.8157 52.1985 31.7957C52.1376 31.4422 52 31.1113 51.7751 30.8347C51.7077 30.7519 51.5114 30.775 51.4565 30.8805C51.1881 31.3959 51.0695 31.9689 50.9478 32.5374C50.8256 33.1078 50.7185 33.6833 50.6307 34.2614C50.4599 35.385 50.4846 36.5083 50.6817 37.6273C50.8929 38.8254 51.2194 39.988 51.555 41.1487C52.1262 43.1248 52.6873 45.1044 53.2542 47.082C53.7966 48.9742 54.3411 50.8654 54.8839 52.7573C55.0567 53.3595 55.2298 53.9617 55.3964 54.5659C55.4318 54.6942 55.4414 54.8314 55.4586 54.9651C55.4851 55.17 55.3584 55.4485 55.1985 55.5358C54.7564 55.7773 54.2937 55.9522 53.8093 56.0582C53.248 56.181 52.688 56.3127 52.1252 56.4271C51.8441 56.484 51.5591 56.5316 51.2741 56.5479C49.1917 56.6666 47.1143 56.9066 45.3512 56.8585Z" fill="black"/>
<path d="M45.126 10.8501C48.3107 10.847 50.8217 13.6233 50.792 16.9474C50.7585 20.6891 48.0108 23.0743 45.1191 23.0707C41.7812 23.0665 39.3433 20.2178 39.3753 16.8861C39.4085 13.4448 42.1379 10.776 45.126 10.8501Z" fill="black"/>
<path d="M36.1527 72.6288C36.2493 71.7316 36.344 70.8735 36.4331 70.0146C36.4846 69.5173 36.5254 69.0187 36.5742 68.521C36.6805 67.4353 36.7885 66.3498 36.8968 65.2643C36.9104 65.1285 36.934 64.9941 36.9464 64.8584C37.1359 62.7759 37.3418 60.6949 37.5055 58.6101C37.5925 57.5023 37.7624 57.2177 38.7977 57.3853C39.7812 57.5445 40.7711 57.5746 41.7616 57.614C42.0062 57.6239 42.2528 57.667 42.4913 57.7286C42.6619 57.7725 42.7655 57.9405 42.7975 58.1212C42.8286 58.2966 42.8277 58.4844 42.8112 58.6636C42.6572 60.3388 42.4948 62.0131 42.3397 63.6882C42.2852 64.2766 42.2515 64.8675 42.1955 65.4558C42.1094 66.3606 42.0042 67.2633 41.9222 68.1685C41.8235 69.2553 41.756 70.3456 41.6458 71.4307C41.554 72.3342 41.443 73.237 41.2982 74.1318C41.148 75.0607 40.5839 75.6497 39.8354 76.0224C39.254 76.3119 38.6489 76.3474 38.0217 76.1455C37.0254 75.8248 36.2344 74.8181 36.1567 73.6833C36.1318 73.3217 36.1527 72.9563 36.1527 72.6288Z" fill="black"/>
<path d="M54.0257 73.427C53.9971 74.5121 53.5409 75.3378 52.7312 75.9241C52.38 76.1784 51.9602 76.2594 51.5485 76.2715C50.1341 76.313 49.1723 75.4889 48.7994 73.879C48.7286 73.5734 48.7327 73.2467 48.7018 72.9298C48.5957 71.8433 48.4842 70.7575 48.384 69.6704C48.175 67.406 47.9731 65.1406 47.7656 62.8761C47.7118 62.2873 47.6462 61.6999 47.5898 61.1114C47.5074 60.2513 47.4254 59.3909 47.3507 58.53C47.3392 58.3966 47.3628 58.2584 47.3779 58.1234C47.3983 57.9424 47.6267 57.6823 47.7929 57.6671C48.1208 57.6369 48.4502 57.6242 48.7783 57.5977C49.6817 57.5248 50.5848 57.4481 51.4881 57.3737C51.6518 57.3603 51.8158 57.3427 51.9797 57.3408C52.204 57.3383 52.4713 57.57 52.5326 57.8113C52.5659 57.9422 52.6013 58.0737 52.6196 58.2077C52.6809 58.658 52.748 59.1081 52.7895 59.5608C52.9971 61.8253 53.1962 64.0907 53.4009 66.3556C53.4623 67.0349 53.5359 67.7132 53.5964 68.3927C53.7377 69.9785 53.8747 71.5647 54.0126 73.1509C54.0204 73.2415 54.0213 73.3327 54.0257 73.427Z" fill="black"/>
<path d="M37.4743 23.0491C37.4806 21.8554 37.811 20.7504 38.3709 19.7306C38.4348 19.6145 38.5339 19.5232 38.622 19.427C38.719 19.3212 39.0043 19.3376 39.0771 19.4454C39.1018 19.482 39.1407 19.5087 39.1578 19.5487C39.5243 20.4019 40.0095 21.1623 40.5137 21.9092C40.5868 22.0175 40.6274 22.1589 40.67 22.2907C40.7422 22.5136 40.6287 22.9277 40.4652 23.0656C40.3995 23.1212 40.3375 23.193 40.2636 23.2237C39.536 23.5269 38.8089 23.8331 38.0755 24.1165C37.7605 24.2382 37.477 23.9988 37.4664 23.6444C37.4635 23.5497 37.46 23.4549 37.4611 23.3603C37.4623 23.2656 37.4689 23.171 37.4743 23.0491Z" fill="black"/>
</svg>
