<svg width="91" height="91" viewBox="0 0 91 91" fill="none" xmlns="http://www.w3.org/2000/svg">
<circle cx="45.5" cy="45.5" r="45.5" fill="white"/>
<path d="M53.1499 39.9737C53.5352 39.9737 53.9206 39.9821 54.3056 39.971C54.5932 39.9627 54.7609 39.7021 54.693 39.3736C54.6426 39.1297 54.5682 38.892 54.5074 38.6506C54.4204 38.3058 54.3254 37.9628 54.2591 37.6131C54.2452 37.5395 54.328 37.4254 54.3905 37.358C54.4259 37.3197 54.5227 37.3097 54.5706 37.3358C54.8291 37.4764 55.0825 37.6294 55.3349 37.7836C55.6163 37.9554 55.8929 38.1368 56.1751 38.3067C56.3121 38.3891 56.5166 38.2471 56.5243 38.0649C56.5333 37.8508 56.5389 37.6356 56.5311 37.4216C56.5099 36.8477 56.4799 36.2743 56.4558 35.7005C56.4528 35.6297 56.4651 35.5581 56.4693 35.4867C56.475 35.3873 56.5717 35.2457 56.6412 35.2606C56.7293 35.2794 56.8367 35.3002 56.894 35.3657C57.1634 35.6735 57.4129 36.0029 57.6818 36.3113C57.7678 36.41 57.8896 36.4712 57.9984 36.5433C58.0633 36.5864 58.2073 36.4703 58.2067 36.3818C58.2062 36.3105 58.2206 36.2358 58.2069 36.1681C57.9217 34.7692 57.6274 33.3726 57.349 31.9721C57.2445 31.4469 57.1683 30.9143 57.0928 30.3827C57.0252 29.9068 57.0928 29.4466 57.3153 29.0324C57.6509 28.4076 57.8311 27.726 57.975 27.0223C58.0893 26.4633 58.2467 25.9152 58.3863 25.3627C58.8142 23.6716 59.2441 21.9812 59.6703 20.2897C59.9137 19.3236 60.1473 18.3546 60.3941 17.3897C60.4859 17.0308 60.4887 16.6811 60.3723 16.3335C60.2486 15.9639 60.1273 15.5925 59.9865 15.231C59.1024 12.9606 58.2113 10.6937 57.3283 8.42281C57.2396 8.19474 57.1848 7.94918 57.1264 7.70798C57.1113 7.64546 57.1231 7.55218 57.1571 7.50257C57.2118 7.42254 57.288 7.34825 57.3697 7.30919C57.4106 7.28955 57.4965 7.33779 57.539 7.38269C57.6074 7.45486 57.6714 7.54173 57.7114 7.63624C57.8348 7.92806 57.9467 8.22595 58.0618 8.52203C59.0086 10.9569 59.9577 13.3907 60.8995 15.8281C61.0798 16.2948 61.3156 16.7122 61.6135 17.0969C63.3153 19.2956 65.0114 21.4997 66.706 23.7052C67.1034 24.2224 67.4842 24.7554 67.8795 25.2747C68.1086 25.5756 68.3473 25.8635 68.6874 26.0237C68.8325 26.0921 68.9617 26.2089 69.0892 26.3167C69.3254 26.5166 69.4983 26.7703 69.5812 27.0939C69.6518 27.3699 69.7477 27.6407 69.7924 27.9218C70.0336 29.4416 70.4328 30.9228 70.6648 32.4454C70.7616 33.081 70.9271 33.7033 71.0548 34.3332C71.36 35.8377 71.6626 37.3429 71.9638 38.8484C72.328 40.6688 72.696 42.4881 73.0503 44.3108C73.3433 45.818 73.6117 47.3309 73.9042 48.8382C74.0742 49.7143 74.2662 50.5852 74.4564 51.4563C74.6009 52.118 74.7064 52.7886 74.8502 53.4516C75.1753 54.9503 75.4324 56.4675 75.7277 57.9745C75.8857 58.7803 76.07 59.5795 76.2344 60.3837C76.3775 61.0831 76.5112 61.7851 76.6455 62.4867C76.8334 63.4688 77.0182 64.4515 77.2038 65.4341C77.2236 65.5395 77.2388 65.6459 77.2592 65.7511C77.4737 66.8581 76.8042 67.7708 75.9139 68.0075C75.4141 68.1404 74.9139 68.2714 74.4123 68.3953C73.4095 68.643 72.4032 68.8692 71.4038 69.1369C70.125 69.4795 68.8317 69.7546 67.5456 70.0636C67.2632 70.1314 66.9839 70.2159 66.7047 70.2992C66.0404 70.4971 65.0844 70.1169 64.7868 69.1055C64.6766 68.7311 64.5822 68.3491 64.5045 67.9645C64.2004 66.4598 63.904 64.953 63.6084 63.4462C63.3952 62.3596 63.1923 61.2705 62.9761 60.1847C62.8088 59.3446 62.6233 58.5091 62.4544 57.6694C62.2713 56.7597 62.0975 55.8477 61.9208 54.9364C61.7781 54.2002 61.6426 53.4623 61.4941 52.7276C61.19 51.2228 60.8712 49.7216 60.5735 48.2152C60.2826 46.744 60.0316 45.2627 59.722 43.7966C59.5449 42.9584 59.3871 42.1163 59.2202 41.276C59.1367 40.8555 59.0633 40.4327 58.9805 40.0122C58.9321 39.7673 58.8758 39.5243 58.8202 39.2812C58.7147 38.8203 58.5255 38.4132 58.2165 38.0774C58.0097 37.8526 57.8154 37.6133 57.6134 37.3829C57.5507 37.3115 57.3918 37.2983 57.3482 37.3587C57.3099 37.4116 57.2526 37.4718 57.2514 37.53C57.2432 37.924 57.2464 38.3184 57.249 38.7126C57.2502 38.8918 57.2645 39.0711 57.2621 39.2502C57.2583 39.5392 57.0167 39.7053 56.79 39.5677C56.4801 39.3796 56.1804 39.1706 55.8699 38.9838C55.7906 38.9361 55.6879 38.934 55.5949 38.9184C55.5294 38.9076 55.3902 39.0505 55.399 39.1224C55.425 39.3331 55.4532 39.5438 55.4892 39.7527C55.5195 39.9281 55.564 40.1003 55.5986 40.2748C55.6202 40.3839 55.4976 40.5903 55.3966 40.6041C55.1428 40.6388 54.8884 40.6738 54.6333 40.6907C54.4415 40.7032 54.2479 40.6785 54.0558 40.6882C53.9293 40.6946 53.8012 40.7223 53.725 40.8643C53.6735 40.9602 53.7053 41.1134 53.8146 41.2463C53.9225 41.3776 54.0489 41.4952 54.1338 41.6428C54.1762 41.7165 54.1656 41.8512 54.1402 41.9451C54.1095 42.0583 53.9065 42.1175 53.805 42.0685C53.7464 42.0403 53.679 42.0268 53.6286 41.9864C53.002 41.4852 52.3776 40.9807 51.7539 40.4753C51.7292 40.4553 51.7053 40.4203 51.6995 40.3882C51.6874 40.3219 51.6689 40.2451 51.6878 40.1867C51.707 40.1272 51.7608 40.0565 51.812 40.0402C51.9329 40.0018 52.0611 39.978 52.1869 39.9745C52.5076 39.9658 52.8286 39.9715 53.1495 39.9715C53.1498 39.9726 53.1498 39.9731 53.1499 39.9737ZM61.7572 18.5251C61.6894 18.561 61.6065 18.5747 61.5868 18.6217C61.5477 18.7141 61.517 18.8292 61.5295 18.9275C61.5885 19.3884 61.6558 19.8485 61.7341 20.3057C61.8906 21.2207 62.0639 22.1323 62.2163 23.048C62.3863 24.0694 62.5397 25.0942 62.7037 26.1169C62.7262 26.2572 62.7629 26.3954 62.8025 26.5314C62.8889 26.8285 63.129 27.0077 63.3978 26.9461C64.4654 26.7017 65.532 26.4517 66.5963 26.19C66.7806 26.1447 66.9534 26.0374 67.1285 25.9511C67.2248 25.9036 67.2803 25.6668 67.2192 25.5703C67.1087 25.3956 67.0008 25.2176 66.8768 25.0553C65.5437 23.312 64.2083 21.571 62.872 19.8307C62.5796 19.4501 62.284 19.0724 61.983 18.7004C61.9215 18.6245 61.8292 18.5796 61.7572 18.5251ZM58.9188 28.0353C58.9327 28.0341 59.0629 28.0372 59.1873 28.0087C59.9417 27.8361 60.6953 27.6589 61.4478 27.4765C61.572 27.4464 61.6913 27.3868 61.8103 27.334C62.0864 27.2112 62.2217 26.9673 62.1786 26.6628C62.1536 26.4859 62.1154 26.3115 62.0842 26.1356C61.9223 25.2213 61.7536 24.3084 61.6007 23.3923C61.4301 22.3706 61.276 21.3453 61.11 20.3225C61.0586 20.0057 60.9993 19.6873 60.824 19.4206C60.7925 19.3726 60.716 19.3553 60.6568 19.3396C60.6385 19.3347 60.598 19.3767 60.5867 19.4064C60.5374 19.537 60.4858 19.668 60.4519 19.804C60.1937 20.8402 59.9433 21.8787 59.6832 22.9142C59.3536 24.226 59.0163 25.5352 58.6844 26.8461C58.6232 27.0876 58.5683 27.3313 58.5165 27.5755C58.4679 27.8034 58.6148 28.0323 58.9188 28.0353ZM61.4827 37.2315C61.4909 37.231 61.4992 37.2306 61.5074 37.2302C61.5074 36.8712 61.5131 36.5122 61.5045 36.1534C61.5011 36.0128 61.4673 35.8727 61.444 35.7332C61.4301 35.6499 61.2728 35.5696 61.2072 35.6158C61.1009 35.6908 60.9784 35.7542 60.899 35.8573C60.3339 36.5916 59.7773 37.3341 59.2205 38.0764C59.1806 38.1296 59.1568 38.1999 59.1332 38.2656C59.0932 38.3772 59.1147 38.4934 59.1986 38.5525C59.2703 38.6032 59.386 38.6441 59.4562 38.6139C59.5699 38.565 59.6753 38.4679 59.7614 38.3668C59.9605 38.133 60.142 37.8807 60.3391 37.6447C60.4021 37.5692 60.4911 37.5204 60.5692 37.4608C60.6242 37.4187 60.7958 37.5051 60.803 37.5856C60.8287 37.8691 60.8548 38.1528 60.8689 38.4373C60.8919 38.9019 60.9039 39.3673 60.925 39.8322C60.9302 39.9463 61.1137 40.0831 61.2168 40.0521C61.3703 40.006 61.5254 39.9616 61.6736 39.8984C62.0327 39.7454 62.3868 39.5775 62.7474 39.4289C62.7892 39.4116 62.8718 39.4636 62.9115 39.5094C62.9513 39.5554 62.9766 39.6329 62.9798 39.6984C62.9831 39.7664 62.9627 39.8424 62.9344 39.9046C62.7894 40.2241 62.6395 40.5409 62.4895 40.8577C62.3844 41.0796 62.2732 41.2979 62.1718 41.5218C62.1286 41.617 62.1002 41.7211 62.0705 41.8233C62.0004 42.0632 62.1261 42.3712 62.3345 42.441C62.5796 42.5232 62.831 42.582 63.077 42.6609C63.2699 42.7228 63.3225 43.0241 63.1668 43.1837C63.049 43.3045 62.9138 43.4037 62.7942 43.5225C62.66 43.6557 62.6324 43.8854 62.7239 43.9991C62.797 44.0899 62.9771 44.123 63.0815 44.0586C63.3622 43.8852 63.6451 43.7153 63.9188 43.5286C64.2191 43.3239 64.5117 43.1047 64.804 42.8858C64.9012 42.813 64.8763 42.5818 64.7708 42.515C64.6876 42.4625 64.6075 42.3973 64.5182 42.3644C64.3051 42.2859 64.0888 42.2164 63.871 42.1564C63.7155 42.1135 63.554 42.0986 63.3976 42.0593C62.9846 41.9555 62.8442 41.609 63.029 41.1585C63.0691 41.0607 63.1136 40.9652 63.1582 40.8699C63.5005 40.1389 63.8456 39.4095 64.184 38.6763C64.2412 38.5522 64.2724 38.4127 64.3124 38.2789C64.3352 38.2025 64.2242 38.0481 64.1461 38.0559C64.0208 38.0683 63.8855 38.0641 63.7735 38.1174C63.3607 38.3138 62.958 38.5366 62.547 38.7379C62.3419 38.8384 62.1286 38.9188 61.916 38.9983C61.7727 39.0521 61.5697 38.906 61.5589 38.7339C61.5279 38.2333 61.5073 37.7323 61.4827 37.2315Z" fill="black"/>
<path d="M26.5594 40.9327C27.6035 40.9496 28.7553 41.023 29.8938 41.2747C30.2082 41.3443 30.5279 41.3847 30.8457 41.4335C31.1121 41.4744 31.3517 41.4027 31.5685 41.2188C32.1558 40.7205 32.7483 40.2297 33.3359 39.7317C34.3838 38.8438 35.4292 37.9523 36.4764 37.0635C36.6041 36.9551 36.735 36.8513 36.8674 36.7503C37.0562 36.6064 37.267 36.5208 37.492 36.4847C38.2749 36.3592 38.7608 36.7082 39.0066 37.5971C39.0964 37.9217 39.0277 38.2355 38.8934 38.5326C38.7604 38.827 38.5608 39.0596 38.33 39.257C37.9227 39.6055 37.5063 39.9407 37.099 40.2893C35.8513 41.3571 34.6071 42.43 33.3594 43.4977C33.0541 43.7591 32.7462 44.0179 32.4287 44.2605C32.0421 44.5557 31.6139 44.6716 31.1467 44.5666C31.0524 44.5454 30.9558 44.5349 30.8627 44.5085C29.7693 44.199 28.6436 44.1327 27.5316 43.9655C27.1848 43.9135 26.8314 43.8613 26.4786 43.9456C26.366 43.9725 26.261 44.1644 26.3128 44.2791C26.3698 44.405 26.4166 44.5473 26.5022 44.645C27.3806 45.6465 28.3219 46.5648 29.4159 47.266C30.0864 47.6959 30.8214 47.9626 31.5429 48.2611C31.6931 48.3232 31.8548 48.3547 31.9997 48.4283C32.4591 48.6614 32.9322 48.6665 33.4143 48.5603C34.7987 48.2551 36.1921 48.0088 37.5862 47.7663C38.0616 47.6836 38.5332 47.5739 39.0071 47.4808C39.1966 47.4435 39.3872 47.4093 39.5785 47.3877C40.1071 47.3279 40.3284 47.5172 40.4546 48.1247C40.4618 48.1596 40.4698 48.1944 40.4754 48.2296C40.739 49.8734 40.7181 51.5084 40.3539 53.1328C39.8882 55.2101 39.0474 57.0932 37.9521 58.8372C36.2647 61.5235 34.2536 63.8735 31.9671 65.931C31.3927 66.4479 30.8131 66.9579 30.2274 67.4586C30.1045 67.5638 29.9464 67.6203 29.8002 67.688C29.7004 67.7344 29.5224 67.6184 29.4897 67.5009C29.4707 67.433 29.4389 67.3684 29.4271 67.2992C29.3249 66.7016 29.2157 66.1053 29.1282 65.505C28.9735 64.4448 28.8322 63.3821 28.6862 62.3202C28.657 62.1078 28.6455 61.891 28.6018 61.6826C28.4335 60.8788 28.3128 60.066 28.239 59.2457C28.182 58.6126 27.9579 58.0785 27.5666 57.6206C27.2345 57.232 26.9172 56.8276 26.585 56.4389C26.14 55.918 25.6336 55.4809 25.0905 55.0933C24.9591 54.9995 24.8372 54.8735 24.7446 54.7342C24.6999 54.667 24.6944 54.5 24.7385 54.4388C24.8777 54.246 25.0367 54.0651 25.21 53.9102C25.5853 53.5748 25.983 53.2701 26.3551 52.9305C26.6274 52.682 26.8942 52.4181 27.1261 52.1244C27.431 51.7383 27.5993 51.2822 27.5662 50.7457C27.5056 49.7646 26.7492 48.8273 25.6657 48.9221C25.2779 48.956 24.911 49.0775 24.6017 49.368C24.381 49.5755 24.1476 49.7663 23.9206 49.9654C22.9119 50.85 21.9035 51.735 20.8944 52.6194C20.8441 52.6636 20.7883 52.7001 20.7374 52.7435C20.3516 53.0728 19.9528 53.3387 19.4402 53.3758C19.0996 53.4004 18.944 54.0249 19.1856 54.3214C19.2387 54.3864 19.356 54.4153 19.4415 54.4104C19.5311 54.4051 19.6279 54.3553 19.7039 54.2964C19.8616 54.1739 20.0071 54.0323 20.1584 53.8993C21.594 52.6367 23.0293 51.3736 24.4662 50.1127C24.6424 49.9581 24.8166 49.7942 25.0112 49.6739C25.1759 49.5721 25.3646 49.4908 25.5502 49.4637C26.4858 49.3269 26.9064 49.8359 27.1089 50.6591C27.1484 50.8199 27.1198 51.0182 27.0766 51.1842C26.9663 51.6073 26.7455 51.9512 26.4292 52.2245C25.9222 52.663 25.4277 53.1196 24.9222 53.5602C23.0762 55.169 21.2295 56.7765 19.3785 58.378C19.1518 58.574 18.9102 58.7582 18.6541 58.8996C18.1452 59.1808 17.5502 59.0169 17.1776 58.5199C17.0122 58.2991 16.874 58.0571 16.8056 57.7744C16.5878 56.8736 16.3899 55.968 16.3907 55.0271C16.3913 54.3106 16.3851 53.593 16.4185 52.8781C16.467 51.838 16.6738 50.8216 16.8533 49.8029C16.9399 49.3116 17.0659 48.8285 17.1822 48.3442C17.215 48.2077 17.2651 48.0724 17.3277 47.9495C17.4256 47.7569 17.5694 47.6124 17.772 47.5718C17.9295 47.5402 18.0905 47.5306 18.2491 47.5053C20.0492 47.2188 21.2899 46.0963 22.0824 44.3049C22.2191 43.7169 22.4325 43.1511 22.4899 42.5399C22.5098 42.3266 22.5319 42.1127 22.5693 41.9026C22.6022 41.7182 22.707 41.5807 22.86 41.5C23.3574 41.2377 23.8782 41.0601 24.4274 41.0099C24.8429 40.9721 25.2599 40.9525 25.6766 40.935C25.9332 40.9239 26.1902 40.9327 26.5594 40.9327Z" fill="black"/>
<path d="M41.3244 50.8442C41.3302 49.9595 41.335 49.2833 41.1861 48.6194C41.1633 48.5177 41.1668 48.4078 41.1642 48.3015C41.1595 48.1094 41.3124 47.8744 41.4901 47.8189C41.6746 47.7612 41.8617 47.7083 42.0508 47.6744C43.1277 47.4819 44.2067 47.3027 45.2831 47.1058C46.3584 46.9089 47.4311 46.6938 48.5057 46.4924C48.822 46.4332 49.1417 46.3974 49.4588 46.3433C49.839 46.2783 50.2184 46.2071 50.5975 46.1346C50.7555 46.1044 50.9108 46.0561 51.0691 46.0292C52.1153 45.8524 53.1628 45.6838 54.2085 45.5029C54.7472 45.4097 55.2825 45.2926 55.8205 45.1939C56.3196 45.1022 56.7682 45.2516 57.1965 45.5388C58.3321 46.3007 58.5577 48.4088 57.1691 49.3957C57.0364 49.49 56.8802 49.5511 56.728 49.6026C56.2674 49.7582 55.8007 49.8806 55.3198 49.9433C54.8426 50.0055 54.3694 50.105 53.8945 50.1893C53.166 50.3186 52.4374 50.4475 51.7093 50.5791C50.6645 50.7682 49.6198 50.9574 48.5757 51.1507C48.1329 51.2327 47.6916 51.3245 47.2499 51.4137C47.1554 51.4329 47.0628 51.4764 46.9682 51.4811C45.8733 51.5342 44.8206 51.9034 43.7327 52.0105C43.4782 52.0355 43.2277 52.1105 42.9752 52.1612C42.6911 52.2182 42.4079 52.2825 42.1223 52.3284C41.4753 52.4322 41.2278 52.3215 41.2962 51.4888C41.3196 51.2057 41.3213 50.9205 41.3244 50.8442Z" fill="black"/>
<path d="M17.5652 46.8692C14.8995 46.9303 13.1921 44.3053 13.1683 42.1558C13.1404 39.6354 14.9524 37.1726 17.6602 37.2164C20.1638 37.2569 22.0564 39.4217 21.9895 42.2085C21.9201 45.1054 19.7249 46.9433 17.5652 46.8692ZM19.0461 43.2173C19.3649 43.2173 19.6839 43.2209 20.0027 43.2155C20.1291 43.2133 20.2589 43.2068 20.3803 43.1731C20.4666 43.1491 20.5489 43.0925 20.5753 42.9711C20.6031 42.8435 20.5289 42.6593 20.4242 42.6282C20.3329 42.6009 20.2409 42.5575 20.1488 42.5564C19.3836 42.547 18.6182 42.539 17.8531 42.545C17.5001 42.5479 17.1561 42.635 16.8252 42.7706C16.7376 42.8067 16.6525 42.8623 16.5803 42.9278C16.5359 42.9681 16.4803 43.062 16.4955 43.0999C16.5307 43.1875 16.599 43.3113 16.6661 43.3213C16.8522 43.3489 17.0483 43.3511 17.2336 43.3179C17.8348 43.2105 18.4393 43.1876 19.0461 43.2173Z" fill="black"/>
<path d="M33.9981 71.4293C33.9869 73.3275 33.9711 75.2257 33.9677 77.124C33.9668 77.5986 33.9023 78.0482 33.7327 78.4802C33.3909 79.3508 32.8031 79.7979 31.9879 79.8166C30.8205 79.8433 30.1 78.9029 29.9781 77.634C29.9577 77.4216 29.9661 77.2046 29.969 76.9899C30.0026 74.4831 30.0376 71.9763 30.073 69.4696C30.0755 69.2906 30.0925 69.1113 30.0881 68.9328C30.0787 68.538 30.2316 68.2537 30.4981 68.0242C30.919 67.662 31.3388 67.2971 31.7454 66.9139C32.2715 66.4178 32.7833 65.9014 33.3035 65.3967C33.4209 65.2828 33.545 65.1777 33.6702 65.0753C33.7569 65.0042 33.9606 65.0923 33.9757 65.2094C34.0029 65.4194 34.0377 65.6314 34.0369 65.8422C34.029 67.7046 34.014 69.5669 34.0011 71.4293C34.0001 71.4293 33.9991 71.4293 33.9981 71.4293Z" fill="black"/>
<path d="M7.93737 49.7137C7.21052 49.7174 6.56725 49.476 6.03989 48.9005C5.97475 48.8294 5.9345 48.7279 5.8879 48.6371C5.83029 48.5249 5.93073 48.3133 6.0387 48.3118C6.10116 48.3111 6.16887 48.2891 6.22529 48.309C6.91506 48.5518 7.46423 48.2277 7.95263 47.7393C8.20982 47.4822 8.4444 47.1831 8.63972 46.8647C8.94371 46.3691 9.21497 45.8469 9.48286 45.3249C9.76731 44.7704 10.0662 44.2284 10.4259 43.7311C10.8104 43.1994 11.2815 42.7887 11.8249 42.4829C11.9367 42.42 12.0605 42.3826 12.1808 42.3404C12.312 42.2944 12.5426 42.4093 12.5796 42.5468C12.7166 43.0553 12.8514 43.5647 12.9787 44.0763C13.0227 44.2535 12.9862 44.4293 12.906 44.5886C12.8594 44.6809 12.7996 44.7645 12.748 44.8537C12.4386 45.3891 12.1258 45.922 11.8222 46.4616C11.4676 47.092 11.1029 47.7129 10.6767 48.2873C9.96204 49.2505 9.04385 49.7075 7.93737 49.7137Z" fill="black"/>
<path d="M76.4473 48.1698C76.4357 48.4109 76.371 48.7608 76.1816 49.0677C76.1279 49.1546 76.0546 49.2332 75.9761 49.2935C75.93 49.3288 75.8429 49.3486 75.7982 49.3238C75.7558 49.3004 75.7179 49.2051 75.726 49.1497C75.7408 49.0473 75.7861 48.9486 75.8267 48.8524C76.1395 48.1115 76.1312 47.3979 75.6836 46.717C75.6466 46.6607 75.6104 46.5914 75.606 46.5256C75.6018 46.4641 75.6244 46.3775 75.6649 46.3418C75.7044 46.3069 75.8059 46.2917 75.8376 46.3216C75.9597 46.4366 76.0927 46.5557 76.1708 46.705C76.3867 47.1176 76.4807 47.5698 76.4473 48.1698Z" fill="black"/>
<path d="M54.5664 29.2459C54.6552 28.4824 54.8316 27.7694 55.4293 27.385C55.4891 27.3466 55.5423 27.3855 55.5689 27.4666C55.5788 27.4969 55.5889 27.5361 55.5824 27.5649C55.567 27.6327 55.5545 27.714 55.5184 27.7598C55.0122 28.4038 54.8161 29.1508 55.0553 30.0496C55.0642 30.0829 55.0594 30.1219 55.0633 30.1578C55.0751 30.2688 54.9999 30.4174 54.9348 30.3975C54.8866 30.3828 54.8251 30.3549 54.8011 30.3065C54.6453 29.9912 54.5932 29.6337 54.5664 29.2459Z" fill="black"/>
<path d="M49.6735 52.7459C49.3902 52.7015 49.0633 52.6499 48.8254 52.3136C48.7933 52.2682 48.797 52.174 48.797 52.1024C48.797 52.0777 48.834 52.0477 48.8585 52.03C48.8833 52.012 48.913 51.9989 48.9414 51.996C49.3382 51.9553 49.7032 52.103 50.0534 52.3202C50.0985 52.3482 50.1261 52.4358 50.1501 52.5027C50.1772 52.5781 50.0674 52.721 49.9833 52.7294C49.9539 52.7323 49.9248 52.7439 49.8955 52.7452C49.8359 52.7477 49.7764 52.7459 49.6735 52.7459Z" fill="black"/>
<path d="M56.1804 28.132C56.21 28.1782 56.2593 28.2222 56.2639 28.2714C56.2692 28.3265 56.2449 28.3947 56.2149 28.4428C55.9768 28.8254 55.8957 29.2312 56.0389 29.6823C56.0503 29.7184 56.0024 29.8053 55.9638 29.8259C55.926 29.8459 55.857 29.8249 55.8159 29.7966C55.7708 29.7656 55.7273 29.7117 55.7089 29.657C55.6604 29.5126 55.6016 29.3646 55.59 29.2138C55.5564 28.7768 55.7353 28.4314 56.0189 28.1488C56.0512 28.1165 56.1255 28.1363 56.1804 28.132Z" fill="black"/>
<path d="M46.8903 45.5487C46.3996 45.579 46.036 45.3323 45.7452 44.933C45.7344 44.9182 45.7543 44.8633 45.7736 44.8411C45.7951 44.8163 45.8326 44.7938 45.8629 44.7939C46.2809 44.7947 46.6828 44.9 47.079 45.03C47.1385 45.0496 47.1839 45.1202 47.2348 45.1685C47.3006 45.2312 47.2659 45.4282 47.1848 45.463C47.1535 45.4764 47.1256 45.5018 47.0936 45.5099C47.0268 45.527 46.9582 45.5363 46.8903 45.5487Z" fill="black"/>
<path d="M75.4348 47.7497C75.4131 48.1281 75.3581 48.4865 75.1611 48.7439C75.1455 48.7644 75.1136 48.7721 75.0946 48.7613C75.075 48.7502 75.0492 48.7107 75.0481 48.6815C75.0438 48.5722 75.0295 48.4499 75.0533 48.3544C75.1467 47.9784 75.1462 47.6211 75.0165 47.2667C74.9811 47.17 74.9587 47.0605 74.933 46.9551C74.9076 46.8511 74.9529 46.6788 75.0067 46.6837C75.0508 46.6877 75.1064 46.6995 75.1353 46.7439C75.3118 47.0156 75.4026 47.3576 75.4348 47.7497Z" fill="black"/>
<path d="M51.3948 51.6069C51.5125 51.6553 51.7266 51.7235 51.9239 51.8365C51.983 51.8704 52.0229 52.0297 52.022 52.1309C52.021 52.251 51.9381 52.3298 51.8331 52.3503C51.5277 52.41 51.277 52.2654 51.0591 52.0202C51.0209 51.9773 51.0094 51.8848 51.0042 51.8131C50.9969 51.7116 51.1114 51.601 51.2022 51.6066C51.2334 51.6086 51.2649 51.6069 51.3948 51.6069Z" fill="black"/>
<path d="M48.9388 45.1684C48.8325 45.1345 48.6621 45.0993 48.5015 45.0202C48.4281 44.984 48.3703 44.8669 48.3123 44.7767C48.259 44.6938 48.3048 44.4872 48.3748 44.4601C48.7083 44.331 48.9968 44.4615 49.2448 44.8001C49.2819 44.8508 49.3163 44.9575 49.3049 45.0192C49.2947 45.0749 49.2229 45.1192 49.1728 45.1413C49.1195 45.1649 49.0597 45.1566 48.9388 45.1684Z" fill="black"/>
<path d="M53.917 51.6027C53.7875 51.5726 53.6198 51.5367 53.4541 51.492C53.4273 51.4848 53.3989 51.4413 53.3886 51.4076C53.3605 51.316 53.3945 51.2336 53.4795 51.2308C53.7537 51.2215 54.0287 51.222 54.3025 51.2373C54.3391 51.2394 54.4029 51.3534 54.3965 51.4066C54.3899 51.4614 54.3192 51.5295 54.2651 51.548C54.1676 51.5813 54.0615 51.5822 53.917 51.6027Z" fill="black"/>
<path d="M47.3441 52.7451C47.4152 52.7727 47.4819 52.7911 47.5474 52.8264C47.6031 52.8562 47.6238 52.9568 47.6022 53.0894C47.5943 53.1384 47.573 53.1854 47.5536 53.2067C47.4235 53.3492 47.2905 53.3518 47.1638 53.1951C47.1328 53.1567 47.1174 53.0183 47.1017 52.9185C47.0992 52.9023 47.1306 52.8236 47.1493 52.8141C47.2148 52.7811 47.2816 52.7658 47.3441 52.7451Z" fill="black"/>
<path d="M51.2897 44.7892C51.2519 44.7832 51.2074 44.7912 51.1775 44.7685C51.1156 44.7215 51.0614 44.6582 51.0039 44.6016C51.0596 44.543 51.1097 44.4498 51.1723 44.4334C51.2819 44.4048 51.4018 44.4039 51.5118 44.4297C51.5744 44.4442 51.6261 44.5346 51.6826 44.5908C51.6277 44.6502 51.5794 44.7315 51.5159 44.7629C51.448 44.7962 51.3657 44.7824 51.2897 44.7892Z" fill="black"/>
</svg>
