<svg width="13" height="16" viewBox="0 0 13 16" fill="none" xmlns="http://www.w3.org/2000/svg">
<path d="M6.4987 7.05691C7.12501 7.05691 7.73725 6.86887 8.258 6.51657C8.77876 6.16427 9.18464 5.66353 9.42432 5.07768C9.66399 4.49182 9.7267 3.84716 9.60452 3.22522C9.48233 2.60328 9.18074 2.032 8.73787 1.5836C8.295 1.13521 7.73076 0.82985 7.11648 0.706139C6.50221 0.582427 5.8655 0.64592 5.28687 0.888589C4.70823 1.13126 4.21367 1.5422 3.86571 2.06946C3.51775 2.59671 3.33203 3.2166 3.33203 3.85072C3.33203 4.70105 3.66566 5.51656 4.25953 6.11784C4.85339 6.71911 5.65885 7.05691 6.4987 7.05691ZM11.2487 15.0724C11.4587 15.0724 11.66 14.9879 11.8085 14.8376C11.957 14.6873 12.0404 14.4834 12.0404 14.2708C12.0404 12.7827 11.4565 11.3556 10.4172 10.3034C9.37798 9.25114 7.96844 8.66 6.4987 8.66C5.02896 8.66 3.61941 9.25114 2.58015 10.3034C1.54088 11.3556 0.957031 12.7827 0.957031 14.2708C0.957031 14.4834 1.04044 14.6873 1.18891 14.8376C1.33737 14.9879 1.53873 15.0724 1.7487 15.0724H11.2487Z" fill="white"/>
</svg>
