<svg width="13" height="15" viewBox="0 0 13 15" fill="none" xmlns="http://www.w3.org/2000/svg">
<path d="M11.0885 14.0433L11.0885 14.0435H11.0945H11.1883C12.0479 14.0435 12.692 13.3336 12.7413 12.4302L12.7414 12.4302V12.4248V9.79233C12.7414 9.30165 12.4878 8.90954 12.1209 8.73972L12.1209 8.73968L12.1181 8.73848L10.3369 7.97912L10.3369 7.9791L10.3352 7.97842C9.92842 7.81368 9.50766 7.86656 9.19383 8.20479L8.20134 9.22794C6.45855 8.86653 5.11279 7.41553 4.77953 5.52104L5.7304 4.49412L5.7307 4.4944L5.73619 4.48727C5.98807 4.16084 6.09283 3.66955 5.93824 3.27751L5.28274 1.40656C5.28273 1.40654 5.28272 1.40651 5.28271 1.40649C5.12841 0.962195 4.71614 0.68125 4.29765 0.68125H1.71952V0.681048L1.71318 0.681451C0.850961 0.736227 0.257778 1.55317 0.30719 2.407L0.307179 2.407L0.307286 2.40846C0.401508 3.70588 0.778303 6.47045 2.29009 8.98327C3.80516 11.5016 6.45833 13.7627 11.0885 14.0433Z" fill="white" stroke="white" stroke-width="0.2"/>
</svg>
