<svg width="21" height="18" viewBox="0 0 21 18" fill="none" xmlns="http://www.w3.org/2000/svg">
<path d="M1.78088 15.8498C0.622125 14.5302 0 13.0501 0 10.6508C0 6.42889 2.76412 2.64484 6.78375 0.773926L7.78838 2.43616C4.0365 4.61226 3.303 7.43612 3.0105 9.21656C3.61463 8.88122 4.4055 8.76421 5.18062 8.84141C7.21012 9.04286 8.80988 10.8293 8.80988 13.0501C8.80988 14.1698 8.39503 15.2437 7.65661 16.0354C6.91818 16.8272 5.91666 17.272 4.87238 17.272C4.29487 17.2666 3.72413 17.1381 3.19338 16.8939C2.66264 16.6497 2.18248 16.2948 1.78088 15.8498ZM13.0309 15.8498C11.8721 14.5302 11.25 13.0501 11.25 10.6508C11.25 6.42889 14.0141 2.64484 18.0338 0.773926L19.0384 2.43616C15.2865 4.61226 14.553 7.43612 14.2605 9.21656C14.8646 8.88122 15.6555 8.76421 16.4306 8.84141C18.4601 9.04286 20.0599 10.8293 20.0599 13.0501C20.0599 14.1698 19.645 15.2437 18.9066 16.0354C18.1682 16.8272 17.1667 17.272 16.1224 17.272C15.5449 17.2666 14.9741 17.1381 14.4434 16.8939C13.9126 16.6497 13.4325 16.2948 13.0309 15.8498Z" fill="white"/>
</svg>
