<svg width="21" height="18" viewBox="0 0 21 18" fill="none" xmlns="http://www.w3.org/2000/svg">
<path d="M18.2777 15.8498C19.4365 14.5302 20.0586 13.0501 20.0586 10.6508C20.0586 6.42889 17.2945 2.64484 13.2748 0.773926L12.2702 2.43616C16.0221 4.61226 16.7556 7.43612 17.0481 9.21656C16.444 8.88122 15.6531 8.76421 14.878 8.84141C12.8485 9.04286 11.2487 10.8293 11.2487 13.0501C11.2487 14.1698 11.6636 15.2437 12.402 16.0354C13.1404 16.8272 14.1419 17.272 15.1862 17.272C15.7637 17.2666 16.3345 17.1381 16.8652 16.8939C17.396 16.6497 17.8761 16.2948 18.2777 15.8498ZM7.02772 15.8498C8.18647 14.5302 8.80859 13.0501 8.80859 10.6508C8.80859 6.42889 6.04447 2.64484 2.02484 0.773926L1.02022 2.43616C4.77209 4.61226 5.50559 7.43612 5.79809 9.21656C5.19397 8.88122 4.40309 8.76421 3.62797 8.84141C1.59847 9.04286 -0.00127983 10.8293 -0.00127983 13.0501C-0.00127983 14.1698 0.413561 15.2437 1.15199 16.0354C1.89041 16.8272 2.89193 17.272 3.93622 17.272C4.51373 17.2666 5.08447 17.1381 5.61521 16.8939C6.14596 16.6497 6.62611 16.2948 7.02772 15.8498Z" fill="white"/>
</svg>
