<svg width="120" height="98" viewBox="0 0 120 98" fill="none" xmlns="http://www.w3.org/2000/svg">
<path d="M59.9697 97.9036C48.4016 97.9036 36.8335 97.9068 25.2655 97.9024C18.2656 97.8997 12.8969 92.3598 13.1743 85.2789C13.2635 83.005 13.7211 80.744 14.0396 78.4813C14.7688 73.301 15.485 68.1185 16.2663 62.9464C16.9092 58.6908 19.4408 56.0628 23.3956 54.7456C25.8647 53.9233 28.4123 53.2919 30.7961 52.2667C38.5432 48.9348 42.7274 42.8427 43.7617 34.4371C43.8392 33.807 43.9219 33.1746 43.945 32.5412C43.9646 32.002 44.1259 31.7159 44.7125 31.6642C47.6531 31.4054 50.5858 30.9993 53.5311 30.8568C59.4119 30.5719 65.2963 30.6351 71.1673 31.151C72.4873 31.2671 73.7969 31.5054 75.1165 31.6305C75.7946 31.6947 76.0242 31.9753 76.0687 32.6724C76.2518 35.5535 76.8185 38.3597 77.8947 41.0436C79.9678 46.2141 83.6914 49.7719 88.6326 52.0017C90.8611 53.0074 93.2126 53.7862 95.5715 54.4282C99.4915 55.4951 102.354 57.6499 103.48 61.7309C103.842 63.043 103.958 64.4279 104.152 65.7846C105 71.7172 105.829 77.6527 106.679 83.5851C107.615 90.1139 103.885 96.0601 97.8694 97.5191C96.833 97.7704 95.7406 97.8853 94.6736 97.8875C83.1058 97.9131 71.5377 97.9036 59.9697 97.9036ZM59.9707 82.5643C68.3568 82.5904 75.166 75.7999 75.2078 67.3686C75.2497 58.9207 68.4484 52.0487 60.0266 52.0294C51.6498 52.0101 44.8298 58.8197 44.7934 67.2395C44.7567 75.7071 51.5218 82.5381 59.9707 82.5643Z" fill="white"/>
<path d="M59.9767 18.4427C54.5397 18.3843 49.1102 18.5559 43.7247 19.3851C40.8252 19.8315 37.9435 20.3992 35.3105 21.7949C34.5658 22.1898 33.8675 22.7126 33.2338 23.2762C32.3445 24.0672 31.9647 25.1154 31.9487 26.3322C31.9192 28.5663 31.9375 30.8089 31.7465 33.0312C31.4442 36.551 29.6064 39.0789 26.5172 40.6857C23.8097 42.0942 20.8901 42.7882 17.9211 43.3008C15.4514 43.7272 12.9743 44.0863 10.4531 43.8299C5.4205 43.3181 2.28709 40.6373 0.946854 35.6882C0.0669891 32.4391 0.0892261 29.1112 0.00348331 25.7801C-0.0604231 23.2984 0.75814 21.2099 2.20114 19.2977C3.89396 17.0549 5.97883 15.238 8.24821 13.6339C14.3394 9.32883 21.1126 6.53272 28.1994 4.46721C39.9518 1.04197 51.9662 -0.12621 64.1561 0.251593C72.7187 0.51695 81.1706 1.59464 89.4636 3.80595C97.1809 5.86374 104.578 8.70661 111.24 13.2699C113.699 14.9546 115.959 16.8743 117.783 19.2796C119.249 21.2127 120.07 23.326 119.995 25.8332C119.903 28.9079 119.931 31.9805 119.224 35.0007C117.9 40.6647 114.535 43.6768 108.825 43.8606C103.848 44.0208 99.0077 43.0515 94.3926 41.11C90.3381 39.4044 88.2997 36.2417 88.1326 31.8246C88.0673 30.0986 88.0282 28.3676 88.0805 26.6421C88.1334 24.8938 87.4052 23.6091 86.0642 22.62C84.265 21.2929 82.1863 20.6357 80.06 20.1241C75.0879 18.9278 70.0174 18.6059 64.9332 18.4502C63.2826 18.4 61.6291 18.4427 59.9767 18.4427Z" fill="white"/>
<path d="M60.1776 82.8006C51.7288 82.7744 44.9635 75.9434 45.0001 67.4758C45.0366 59.0562 51.8566 52.2466 60.2333 52.2657C68.6551 52.285 75.4565 59.157 75.4146 67.6049C75.3731 76.0359 68.564 82.8266 60.1776 82.8006Z" fill="black"/>
</svg>
