<svg width="105" height="105" viewBox="0 0 105 105" fill="none" xmlns="http://www.w3.org/2000/svg">
<path d="M0 93.884C0 68.8966 0 43.9091 0 18.9219C0.0448504 18.7323 0.102436 18.545 0.133167 18.3532C1.0335 12.7577 5.31284 8.69293 10.985 8.30307C13.9709 8.09781 16.9806 8.23392 19.9795 8.21932C20.0321 8.21904 20.085 8.26119 20.1874 8.305C20.1874 8.52569 20.1877 8.75878 20.1874 8.99215C20.1852 11.4079 20.17 13.8239 20.1841 16.2397C20.2054 19.889 22.6913 23.1161 26.1353 23.997C31.3706 25.3357 36.2715 21.6107 36.3333 16.2268C36.3612 13.7914 36.3416 11.3558 36.346 8.92024C36.3465 8.69514 36.3662 8.46976 36.3773 8.24246C47.1608 8.24246 57.8676 8.24246 68.6436 8.24246C68.6436 8.51054 68.6436 8.74142 68.6436 8.97259C68.6427 11.3492 68.646 13.7259 68.6394 16.1025C68.633 18.3764 69.3872 20.3651 71.0372 21.9328C73.584 24.3529 76.5704 24.9313 79.8404 23.644C82.8584 22.4557 84.7709 19.4908 84.7842 16.1827C84.7939 13.7473 84.7894 11.3118 84.7939 8.87615C84.7941 8.66896 84.8132 8.46177 84.8246 8.2386C85.0621 8.22538 85.2368 8.20719 85.4118 8.20719C87.9381 8.20829 90.4644 8.20113 92.9904 8.22262C93.6391 8.22813 94.2947 8.27993 94.9339 8.38738C100.885 9.38862 104.931 14.1334 104.962 20.2356C105.001 27.6597 104.978 35.0842 104.979 42.5086C104.98 52.7613 104.979 63.0139 104.977 73.2666C104.976 79.8069 105.044 86.3486 104.951 92.8875C104.854 99.595 99.7025 104.616 92.9721 104.641C83.282 104.677 73.5912 104.649 63.9008 104.649C55.2759 104.648 46.6514 104.647 38.0265 104.647C29.4019 104.648 20.7771 104.677 12.1525 104.643C6.38841 104.621 1.85243 101.175 0.421096 95.8276C0.249723 95.1875 0.138704 94.5321 0 93.884ZM8.09661 36.3769C8.08526 36.5816 8.07114 36.7164 8.07114 36.8508C8.07058 41.8992 8.07114 46.9475 8.07141 51.9956C8.07197 60.6582 8.07252 69.3209 8.0728 77.9835C8.0728 82.8354 8.06947 87.6873 8.0728 92.5389C8.07363 93.7926 8.43825 94.9048 9.43907 95.7347C10.219 96.3811 11.1412 96.6042 12.1395 96.604C17.9429 96.6026 23.7464 96.6095 29.5498 96.6095C40.1887 96.6092 50.8277 96.6054 61.4667 96.6042C71.8886 96.6031 82.3102 96.6095 92.7321 96.599C95.401 96.5963 96.8722 95.1211 96.8852 92.4632C96.9004 89.3203 96.8891 86.1775 96.8891 83.0343C96.8891 67.6931 96.8891 52.3516 96.8877 37.0101C96.8877 36.8034 96.8678 36.5968 96.8564 36.3766C67.2418 36.3769 37.6987 36.3769 8.09661 36.3769Z" fill="white"/>
<path d="M77.462 0.183594C77.6675 0.24779 77.8721 0.31419 78.078 0.375906C79.6996 0.861648 80.7397 2.20453 80.7508 3.99679C80.7768 8.15742 80.7804 12.3183 80.7433 16.479C80.7231 18.7625 79.0625 20.2756 76.7143 20.2643C74.3131 20.2528 72.7148 18.7413 72.7029 16.4115C72.6821 12.3489 72.6866 8.28609 72.6921 4.22355C72.6952 2.09873 73.6902 0.835751 75.7699 0.266251C75.8242 0.251373 75.8718 0.211697 75.9225 0.183594C76.4355 0.183594 76.9488 0.183594 77.462 0.183594Z" fill="white"/>
<path d="M29.0167 0.183869C31.6909 1.15893 32.2905 1.99293 32.3041 4.89416C32.3221 8.66107 32.3235 12.4283 32.3041 16.1952C32.2964 17.7174 31.795 19.0476 30.349 19.7706C28.8623 20.5139 27.3337 20.5051 25.8941 19.6086C24.8307 18.9465 24.2814 17.9227 24.2673 16.6955C24.2261 13.0664 24.238 9.43694 24.2316 5.80751C24.2305 5.16032 24.2128 4.51146 24.2512 3.8662C24.3614 2.01387 25.3656 0.794146 27.1463 0.303169C27.259 0.272035 27.3667 0.22382 27.4769 0.183594C27.9902 0.183869 28.5035 0.183869 29.0167 0.183869Z" fill="white"/>
<path d="M8.09587 36.3818C37.698 36.3818 67.2408 36.3818 96.8559 36.3818C96.8673 36.602 96.8872 36.8086 96.8872 37.0153C96.8886 52.3568 96.8886 67.698 96.8886 83.0395C96.8886 86.1824 96.9 89.3255 96.8847 92.4684C96.8717 95.1263 95.4005 96.6015 92.7316 96.6042C82.3097 96.6147 71.8881 96.6083 61.4662 96.6094C50.8272 96.6105 40.1883 96.6144 29.5493 96.6147C23.7459 96.6147 17.9425 96.6081 12.139 96.6092C11.1404 96.6094 10.2182 96.3863 9.43861 95.7399C8.43778 94.91 8.07317 93.7978 8.07233 92.5441C8.06874 87.6922 8.07233 82.8403 8.07233 77.9887C8.07233 69.3261 8.0715 60.6634 8.07095 52.0008C8.07067 46.9524 8.06984 41.9041 8.07067 36.856C8.07067 36.7213 8.08452 36.5865 8.09587 36.3818ZM43.6124 84.1606C43.6124 72.7557 43.6124 61.4159 43.6124 50.0457C41.4493 50.0457 39.3389 50.043 37.2287 50.0515C37.0789 50.052 36.9217 50.1184 36.7807 50.1821C34.0701 51.4115 31.3635 52.6505 28.649 53.871C28.3259 54.0162 28.265 54.1835 28.35 54.5075C28.4843 55.0197 28.5651 55.5454 28.675 56.0642C28.9541 57.382 29.2367 58.699 29.5308 60.0763C31.6864 58.9861 33.7785 57.9281 35.9748 56.8172C35.9748 66.0217 35.9748 75.0709 35.9748 84.1606C38.5443 84.1606 41.0595 84.1606 43.6124 84.1606ZM72.6387 84.162C72.6387 72.7574 72.6387 61.4178 72.6387 50.0418C70.5177 50.0418 68.4471 50.0399 66.3765 50.0465C66.2447 50.0471 66.106 50.1 65.9822 50.1554C63.2118 51.3955 60.4457 52.6455 57.6708 53.8749C57.3424 54.0204 57.291 54.1981 57.3643 54.5116C57.5479 55.2949 57.7118 56.0832 57.8776 56.8706C58.0985 57.9184 58.3137 58.9671 58.5446 60.0785C60.7043 58.9858 62.7857 57.9328 64.9753 56.8252C64.9753 66.0014 64.9753 75.0621 64.9753 84.162C67.5686 84.162 70.0841 84.162 72.6387 84.162Z" fill="black"/>
<path d="M43.6135 84.1564C41.0606 84.1564 38.5454 84.1564 35.9759 84.1564C35.9759 75.0667 35.9759 66.0175 35.9759 56.8129C33.7796 57.9238 31.6874 58.9818 29.5319 60.072C29.2378 58.6947 28.9552 57.3777 28.6761 56.0599C28.5662 55.5411 28.4854 55.0154 28.3511 54.5032C28.2661 54.1792 28.327 54.012 28.6501 53.8668C31.3649 52.6462 34.0712 51.4075 36.7818 50.1778C36.9228 50.1139 37.08 50.0478 37.2298 50.0472C39.34 50.0387 41.4504 50.0414 43.6135 50.0414C43.6135 61.4119 43.6135 72.7517 43.6135 84.1564Z" fill="white"/>
<path d="M72.6395 84.1576C70.085 84.1576 67.5695 84.1576 64.9762 84.1576C64.9762 75.0577 64.9762 65.9972 64.9762 56.8208C62.7865 57.9286 60.7052 58.9814 58.5454 60.0741C58.3145 58.9626 58.0994 57.9137 57.8785 56.8662C57.7126 56.0788 57.5487 55.2905 57.3652 54.5072C57.2918 54.1937 57.3433 54.016 57.6717 53.8705C60.4469 52.6411 63.2129 51.3911 65.9831 50.151C66.1066 50.0956 66.2453 50.0427 66.3774 50.0421C68.4479 50.0352 70.5188 50.0374 72.6395 50.0374C72.6395 61.4134 72.6395 72.753 72.6395 84.1576Z" fill="white"/>
</svg>
